Coordinates
version=1
nRows=17
nColumns=33
inDegrees=yes

Units are S.I. units (second, meters, Newtons, ...)
Angles are in degrees.

endheader
time	ground_thorax_rot_x	ground_thorax_rot_y	ground_thorax_rot_z	ground_thorax_tx	ground_thorax_ty	ground_thorax_tz	clav_prot_r	clav_elev_r	scapula_abduction_r	scapula_elevation_r	scapula_upward_rot_r	scapula_winging_r	shoulder_elv_r	plane_of_elev_r	axial_rot_r	elbow_flexion_r	pro_sup_r	wrist_flex_r	wrist_dev_r	clav_prot_l	clav_elev_l	scapula_abduction_l	scapula_elevation_l	scapula_upward_rot_l	scapula_winging_l	shoulder_elv_l	plane_of_elev_l	axial_rot_l	elbow_flexion_l	pro_sup_l	wrist_flex_l	wrist_dev_l
      5.05000000	    -33.03231434	    -23.03092860	     29.09352657	    -98.21268104	    855.36851853	    -50.28628267	     26.45836238	    -45.00000000	     39.27351090	    -45.00000000	    -45.00000000	   1692.13009616	   1156.57282154	     21.05531342	   -146.02860951	   2518.06094809	    151.25144724	     14.23267981	     15.27625996	     -1.78469925	     32.80326850	    -30.86440835	    -45.00000000	    -45.00000000	   3687.92962212	  -2608.46421145	    133.06584072	   -106.55938387	   1789.48975356	     41.19664169	     13.41148199	    -21.83276638
      5.06000000	    -33.05994557	    -22.84264606	     28.99442950	    -98.14939354	    854.85238823	    -50.32219540	     25.47170502	    -45.00000000	     39.02671650	    -45.00000000	    -45.00000000	   1692.29271406	   1156.68455089	     20.99025252	   -145.67300014	   2517.80447573	    152.72087332	     14.58280885	     14.72446278	     -1.16080896	     32.74159336	    -31.12551886	    -45.00000000	    -45.00000000	   3687.72547860	  -2608.63459220	    133.30542937	   -106.96167282	   1789.42060491	     41.63577922	     13.18346482	    -22.30135070
      5.07000000	    -32.97243448	    -23.05635465	     29.31656632	    -98.02773999	    854.35100062	    -50.37008631	     25.77507047	    -45.00000000	     38.99507226	    -45.00000000	    -45.00000000	   1692.21969217	   1156.58804629	     21.11163123	   -146.11444623	   2518.18531899	    153.70611770	     14.92621862	     14.83869134	     -1.48661526	     32.84121042	    -30.93798123	    -45.00000000	    -45.00000000	   3687.75011492	  -2608.55772887	    133.08337461	   -107.07639052	   1789.52598619	     42.08013004	     13.06910618	    -22.18913312
      5.08000000	    -32.95795015	    -23.10981631	     29.32933406	    -97.84053200	    853.87611356	    -50.42984273	     25.74707288	    -45.00000000	     39.04552332	    -45.00000000	    -45.00000000	   1692.22815396	   1156.65608577	     21.01906495	   -146.22477623	   2518.07682778	    154.59623012	     14.95891729	     14.51164366	     -1.24989392	     32.69384388	    -30.95271610	    -45.00000000	    -45.00000000	   3687.62651890	  -2608.73644570	    133.33676916	   -107.05407559	   1789.60737046	     42.33439656	     12.87997212	    -22.65665338
      5.09000000	    -32.94166891	    -23.20750319	     29.45677259	    -97.57767150	    853.44084128	    -50.50226827	     25.79711592	    -45.00000000	     38.88785474	    -45.00000000	    -45.00000000	   1692.19424075	   1156.64558164	     21.22147703	   -146.47004264	   2518.40192526	    155.20952552	     15.41075270	     14.77876350	     -1.50940037	     32.88091807	    -30.86000659	    -45.00000000	    -45.00000000	   3687.82473951	  -2608.61083837	    133.00819093	   -107.10833970	   1789.71245019	     42.69445631	     12.85606795	    -22.33293669
      5.10000000	    -32.96255808	    -23.22415879	     29.48381446	    -97.23176292	    853.05895191	    -50.58699582	     25.86972407	    -45.00000000	     38.93689767	    -45.00000000	    -45.00000000	   1692.22405188	   1156.57912056	     21.16577120	   -146.68691097	   2518.21770880	    155.91778099	     15.28133109	     14.45543225	     -1.29310003	     32.71759981	    -30.93922356	    -45.00000000	    -45.00000000	   3687.61847638	  -2608.58925137	    133.20081136	   -107.05322040	   1789.71708629	     42.89431736	     12.71908018	    -22.80584680
      5.11000000	    -32.90102313	    -23.41823561	     29.61056739	    -96.79737086	    852.73709946	    -50.68373101	     25.80323865	    -45.00000000	     39.10693016	    -45.00000000	    -45.00000000	   1692.22748042	   1156.50905187	     21.10828181	   -146.93673815	   2518.33871422	    156.33145780	     15.63608828	     14.59204056	     -1.43228252	     32.83745710	    -30.97403947	    -45.00000000	    -45.00000000	   3687.73129141	  -2608.64843680	    133.14793705	   -106.91583268	   1789.74497410	     43.12958558	     12.68067350	    -22.65421329
      5.12000000	    -32.88292637	    -23.47916598	     29.63060013	    -96.26449139	    852.47254733	    -50.79295603	     25.93442206	    -45.00000000	     39.05298102	    -45.00000000	    -45.00000000	   1692.24346193	   1156.51236720	     21.21148390	   -147.12065230	   2518.28031375	    156.71691178	     15.45443315	     14.36016207	     -1.29582180	     32.70697859	    -30.96774142	    -45.00000000	    -45.00000000	   3687.60092599	  -2608.62592695	    133.18631633	   -106.79242259	   1789.78989821	     43.22443872	     12.61202589	    -23.01589334
      5.13000000	    -32.76043836	    -23.74299838	     29.82569668	    -95.62911232	    852.26332973	    -50.91405669	     25.90535159	    -45.00000000	     39.25754108	    -45.00000000	    -45.00000000	   1692.30787578	   1156.47845038	     21.16119089	   -147.38329122	   2518.42227076	    156.92614675	     15.86308972	     14.55244087	     -1.49447876	     32.84107621	    -30.84837303	    -45.00000000	    -45.00000000	   3687.66536904	  -2608.53024465	    133.04991485	   -106.52924374	   1789.82968412	     43.39769489	     12.61233198	    -22.77733903
      5.14000000	    -32.66016890	    -23.91753319	     29.94241870	    -94.88756865	    852.10202921	    -51.04648021	     26.12870085	    -45.00000000	     39.36589961	    -45.00000000	    -45.00000000	   1692.24879474	   1156.44924035	     21.27461803	   -147.55851994	   2518.29285174	    157.17532979	     15.52705504	     14.29027399	     -1.49073650	     32.64546897	    -30.67610771	    -45.00000000	    -45.00000000	   3687.43478062	  -2608.34441105	    133.07674705	   -106.20568669	   1789.83196599	     43.40625758	     12.57142508	    -23.04411141
      5.15000000	    -32.78153841	    -23.85584499	     29.83223364	    -94.03511498	    851.97746173	    -51.19018138	     26.12530899	    -45.00000000	     39.15832420	    -45.00000000	    -45.00000000	   1692.31717725	   1156.44907807	     21.40848390	   -147.79821122	   2518.32886458	    157.33188319	     15.73584070	     14.40211612	     -1.52868631	     32.71826224	    -31.09645588	    -45.00000000	    -45.00000000	   3687.64340629	  -2608.43817102	    132.97230665	   -105.76738194	   1789.94379274	     43.48697126	     12.53731784	    -23.05807577
      5.16000000	    -32.66563979	    -24.11337762	     30.01098727	    -93.06702810	    851.87622613	    -51.34523856	     26.19720613	    -45.00000000	     39.26542335	    -45.00000000	    -45.00000000	   1692.35317355	   1156.38646615	     21.43995945	   -148.06784644	   2518.36288334	    157.40530101	     15.81540690	     14.44401024	     -1.62601732	     32.70906816	    -30.99415977	    -45.00000000	    -45.00000000	   3687.58720156	  -2608.36487936	    132.92083503	   -105.40986878	   1789.98908853	     43.53936419	     12.53584554	    -23.10023045
      5.17000000	    -32.67692269	    -24.17359463	     29.98644471	    -91.98003908	    851.78405771	    -51.51094075	     26.24227691	    -45.00000000	     39.23250026	    -45.00000000	    -45.00000000	   1692.45461976	   1156.36888090	     21.51259125	   -148.29013116	   2518.35412507	    157.42292636	     15.86621728	     14.40670580	     -1.50550395	     32.71751410	    -31.09030351	    -45.00000000	    -45.00000000	   3687.58908699	  -2608.27634954	    132.75951502	   -105.02706405	   1790.04228850	     43.55510340	     12.51321991	    -23.12798802
      5.18000000	    -32.66815940	    -24.28971563	     30.05086701	    -90.76914187	    851.68574564	    -51.68647769	     26.14280194	    -45.00000000	     39.19435688	    -45.00000000	    -45.00000000	   1692.63648145	   1156.33762604	     21.48940641	   -148.64492362	   2518.32406818	    157.35744969	     15.92145818	     14.36128027	     -1.25803665	     32.74638432	    -31.22394094	    -45.00000000	    -45.00000000	   3687.58641589	  -2608.17953097	    132.65675176	   -104.66643245	   1790.04304885	     43.55655843	     12.52363629	    -23.14706342
      5.19000000	    -32.57895391	    -24.50671520	     30.20319076	    -89.43549226	    851.56763971	    -51.86952373	     26.30103467	    -45.00000000	     39.28602872	    -45.00000000	    -45.00000000	   1692.67350371	   1156.28597184	     21.57188800	   -148.86173143	   2518.31346064	    157.26360336	     15.92164517	     14.37933481	     -1.33722410	     32.72822624	    -31.25412792	    -45.00000000	    -45.00000000	   3687.56620406	  -2608.08060385	    132.57387998	   -104.20866262	   1790.07407944	     43.51449210	     12.53697130	    -23.17586983
      5.20000000	    -32.48928749	    -24.71831989	     30.36977932	    -87.97730068	    851.41717412	    -52.05791143	     26.29679843	    -45.00000000	     39.31436630	    -45.00000000	    -45.00000000	   1692.79399726	   1156.25438488	     21.59524556	   -149.17754374	   2518.28901819	    157.10169037	     15.92203225	     14.38292479	     -1.25454745	     32.73656891	    -31.30762545	    -45.00000000	    -45.00000000	   3687.53499874	  -2608.00314872	    132.49392493	   -103.78345606	   1790.10264610	     43.47492819	     12.57160069	    -23.18530016
      5.21000000	    -32.45307730	    -24.91360360	     30.51764509	    -86.38946567	    851.22391481	    -52.25014152	     26.01490415	    -45.00000000	     39.27775809	    -45.00000000	    -45.00000000	   1693.06634906	   1156.24792490	     21.51444895	   -149.67205116	   2518.24653192	    156.86888018	     15.89251250	     14.40661800	     -0.96125633	     32.79882142	    -31.50630458	    -45.00000000	    -45.00000000	   3687.49173876	  -2607.95606668	    132.53703471	   -103.33224466	   1790.08061271	     43.44370024	     12.63994396	    -23.16539109
